%TF.GenerationSoftware,KiCad,Pcbnew,(5.1.10)-1*%
%TF.CreationDate,2022-04-29T17:26:10-06:00*%
%TF.ProjectId,LEDs,4c454473-2e6b-4696-9361-645f70636258,rev?*%
%TF.SameCoordinates,Original*%
%TF.FileFunction,Paste,Top*%
%TF.FilePolarity,Positive*%
%FSLAX46Y46*%
G04 Gerber Fmt 4.6, Leading zero omitted, Abs format (unit mm)*
G04 Created by KiCad (PCBNEW (5.1.10)-1) date 2022-04-29 17:26:10*
%MOMM*%
%LPD*%
G01*
G04 APERTURE LIST*
G04 APERTURE END LIST*
%TO.C,R1*%
G36*
G01*
X148594000Y-102599500D02*
X148594000Y-102800500D01*
G75*
G02*
X148514500Y-102880000I-79500J0D01*
G01*
X148355500Y-102880000D01*
G75*
G02*
X148276000Y-102800500I0J79500D01*
G01*
X148276000Y-102599500D01*
G75*
G02*
X148355500Y-102520000I79500J0D01*
G01*
X148514500Y-102520000D01*
G75*
G02*
X148594000Y-102599500I0J-79500D01*
G01*
G37*
G36*
G01*
X149284000Y-102599500D02*
X149284000Y-102800500D01*
G75*
G02*
X149204500Y-102880000I-79500J0D01*
G01*
X149045500Y-102880000D01*
G75*
G02*
X148966000Y-102800500I0J79500D01*
G01*
X148966000Y-102599500D01*
G75*
G02*
X149045500Y-102520000I79500J0D01*
G01*
X149204500Y-102520000D01*
G75*
G02*
X149284000Y-102599500I0J-79500D01*
G01*
G37*
%TD*%
%TO.C,D3*%
G36*
G01*
X155630001Y-98650000D02*
X154729999Y-98650000D01*
G75*
G02*
X154480000Y-98400001I0J249999D01*
G01*
X154480000Y-97749999D01*
G75*
G02*
X154729999Y-97500000I249999J0D01*
G01*
X155630001Y-97500000D01*
G75*
G02*
X155880000Y-97749999I0J-249999D01*
G01*
X155880000Y-98400001D01*
G75*
G02*
X155630001Y-98650000I-249999J0D01*
G01*
G37*
G36*
G01*
X155630001Y-100700000D02*
X154729999Y-100700000D01*
G75*
G02*
X154480000Y-100450001I0J249999D01*
G01*
X154480000Y-99799999D01*
G75*
G02*
X154729999Y-99550000I249999J0D01*
G01*
X155630001Y-99550000D01*
G75*
G02*
X155880000Y-99799999I0J-249999D01*
G01*
X155880000Y-100450001D01*
G75*
G02*
X155630001Y-100700000I-249999J0D01*
G01*
G37*
%TD*%
%TO.C,D2*%
G36*
G01*
X152590001Y-98650000D02*
X151689999Y-98650000D01*
G75*
G02*
X151440000Y-98400001I0J249999D01*
G01*
X151440000Y-97749999D01*
G75*
G02*
X151689999Y-97500000I249999J0D01*
G01*
X152590001Y-97500000D01*
G75*
G02*
X152840000Y-97749999I0J-249999D01*
G01*
X152840000Y-98400001D01*
G75*
G02*
X152590001Y-98650000I-249999J0D01*
G01*
G37*
G36*
G01*
X152590001Y-100700000D02*
X151689999Y-100700000D01*
G75*
G02*
X151440000Y-100450001I0J249999D01*
G01*
X151440000Y-99799999D01*
G75*
G02*
X151689999Y-99550000I249999J0D01*
G01*
X152590001Y-99550000D01*
G75*
G02*
X152840000Y-99799999I0J-249999D01*
G01*
X152840000Y-100450001D01*
G75*
G02*
X152590001Y-100700000I-249999J0D01*
G01*
G37*
%TD*%
%TO.C,D1*%
G36*
G01*
X149550001Y-98650000D02*
X148649999Y-98650000D01*
G75*
G02*
X148400000Y-98400001I0J249999D01*
G01*
X148400000Y-97749999D01*
G75*
G02*
X148649999Y-97500000I249999J0D01*
G01*
X149550001Y-97500000D01*
G75*
G02*
X149800000Y-97749999I0J-249999D01*
G01*
X149800000Y-98400001D01*
G75*
G02*
X149550001Y-98650000I-249999J0D01*
G01*
G37*
G36*
G01*
X149550001Y-100700000D02*
X148649999Y-100700000D01*
G75*
G02*
X148400000Y-100450001I0J249999D01*
G01*
X148400000Y-99799999D01*
G75*
G02*
X148649999Y-99550000I249999J0D01*
G01*
X149550001Y-99550000D01*
G75*
G02*
X149800000Y-99799999I0J-249999D01*
G01*
X149800000Y-100450001D01*
G75*
G02*
X149550001Y-100700000I-249999J0D01*
G01*
G37*
%TD*%
M02*
