%TF.GenerationSoftware,KiCad,Pcbnew,(5.1.10)-1*%
%TF.CreationDate,2022-04-29T17:26:10-06:00*%
%TF.ProjectId,LEDs,4c454473-2e6b-4696-9361-645f70636258,rev?*%
%TF.SameCoordinates,Original*%
%TF.FileFunction,Copper,L2,Bot*%
%TF.FilePolarity,Positive*%
%FSLAX46Y46*%
G04 Gerber Fmt 4.6, Leading zero omitted, Abs format (unit mm)*
G04 Created by KiCad (PCBNEW (5.1.10)-1) date 2022-04-29 17:26:10*
%MOMM*%
%LPD*%
G01*
G04 APERTURE LIST*
%TA.AperFunction,ComponentPad*%
%ADD10O,1.300000X0.800000*%
%TD*%
%TA.AperFunction,Conductor*%
%ADD11C,0.254000*%
%TD*%
%TA.AperFunction,Conductor*%
%ADD12C,0.100000*%
%TD*%
G04 APERTURE END LIST*
D10*
%TO.P,J1,2*%
%TO.N,Net-(D1-Pad1)*%
X144400000Y-97775000D03*
%TO.P,J1,1*%
%TO.N,GND*%
%TA.AperFunction,ComponentPad*%
G36*
G01*
X144850000Y-99425000D02*
X143950000Y-99425000D01*
G75*
G02*
X143750000Y-99225000I0J200000D01*
G01*
X143750000Y-98825000D01*
G75*
G02*
X143950000Y-98625000I200000J0D01*
G01*
X144850000Y-98625000D01*
G75*
G02*
X145050000Y-98825000I0J-200000D01*
G01*
X145050000Y-99225000D01*
G75*
G02*
X144850000Y-99425000I-200000J0D01*
G01*
G37*
%TD.AperFunction*%
%TD*%
D11*
%TO.N,GND*%
X158340001Y-103340000D02*
X139660000Y-103340000D01*
X139660000Y-99425000D01*
X143111928Y-99425000D01*
X143124188Y-99549482D01*
X143160498Y-99669180D01*
X143219463Y-99779494D01*
X143298815Y-99876185D01*
X143395506Y-99955537D01*
X143505820Y-100014502D01*
X143625518Y-100050812D01*
X143750000Y-100063072D01*
X144114250Y-100060000D01*
X144273000Y-99901250D01*
X144273000Y-99152000D01*
X144527000Y-99152000D01*
X144527000Y-99901250D01*
X144685750Y-100060000D01*
X145050000Y-100063072D01*
X145174482Y-100050812D01*
X145294180Y-100014502D01*
X145404494Y-99955537D01*
X145501185Y-99876185D01*
X145580537Y-99779494D01*
X145639502Y-99669180D01*
X145675812Y-99549482D01*
X145688072Y-99425000D01*
X145685000Y-99310750D01*
X145526250Y-99152000D01*
X144527000Y-99152000D01*
X144273000Y-99152000D01*
X143273750Y-99152000D01*
X143115000Y-99310750D01*
X143111928Y-99425000D01*
X139660000Y-99425000D01*
X139660000Y-97775000D01*
X143109993Y-97775000D01*
X143129976Y-97977895D01*
X143189159Y-98172993D01*
X143232675Y-98254407D01*
X143219463Y-98270506D01*
X143160498Y-98380820D01*
X143124188Y-98500518D01*
X143111928Y-98625000D01*
X143115000Y-98739250D01*
X143273750Y-98898000D01*
X144273000Y-98898000D01*
X144273000Y-98878000D01*
X144527000Y-98878000D01*
X144527000Y-98898000D01*
X145526250Y-98898000D01*
X145685000Y-98739250D01*
X145688072Y-98625000D01*
X145675812Y-98500518D01*
X145639502Y-98380820D01*
X145580537Y-98270506D01*
X145567325Y-98254407D01*
X145610841Y-98172993D01*
X145670024Y-97977895D01*
X145690007Y-97775000D01*
X145670024Y-97572105D01*
X145610841Y-97377007D01*
X145514734Y-97197203D01*
X145385396Y-97039604D01*
X145227797Y-96910266D01*
X145047993Y-96814159D01*
X144852895Y-96754976D01*
X144700838Y-96740000D01*
X144099162Y-96740000D01*
X143947105Y-96754976D01*
X143752007Y-96814159D01*
X143572203Y-96910266D01*
X143414604Y-97039604D01*
X143285266Y-97197203D01*
X143189159Y-97377007D01*
X143129976Y-97572105D01*
X143109993Y-97775000D01*
X139660000Y-97775000D01*
X139660000Y-94660000D01*
X158340000Y-94660000D01*
X158340001Y-103340000D01*
%TA.AperFunction,Conductor*%
D12*
G36*
X158340001Y-103340000D02*
G01*
X139660000Y-103340000D01*
X139660000Y-99425000D01*
X143111928Y-99425000D01*
X143124188Y-99549482D01*
X143160498Y-99669180D01*
X143219463Y-99779494D01*
X143298815Y-99876185D01*
X143395506Y-99955537D01*
X143505820Y-100014502D01*
X143625518Y-100050812D01*
X143750000Y-100063072D01*
X144114250Y-100060000D01*
X144273000Y-99901250D01*
X144273000Y-99152000D01*
X144527000Y-99152000D01*
X144527000Y-99901250D01*
X144685750Y-100060000D01*
X145050000Y-100063072D01*
X145174482Y-100050812D01*
X145294180Y-100014502D01*
X145404494Y-99955537D01*
X145501185Y-99876185D01*
X145580537Y-99779494D01*
X145639502Y-99669180D01*
X145675812Y-99549482D01*
X145688072Y-99425000D01*
X145685000Y-99310750D01*
X145526250Y-99152000D01*
X144527000Y-99152000D01*
X144273000Y-99152000D01*
X143273750Y-99152000D01*
X143115000Y-99310750D01*
X143111928Y-99425000D01*
X139660000Y-99425000D01*
X139660000Y-97775000D01*
X143109993Y-97775000D01*
X143129976Y-97977895D01*
X143189159Y-98172993D01*
X143232675Y-98254407D01*
X143219463Y-98270506D01*
X143160498Y-98380820D01*
X143124188Y-98500518D01*
X143111928Y-98625000D01*
X143115000Y-98739250D01*
X143273750Y-98898000D01*
X144273000Y-98898000D01*
X144273000Y-98878000D01*
X144527000Y-98878000D01*
X144527000Y-98898000D01*
X145526250Y-98898000D01*
X145685000Y-98739250D01*
X145688072Y-98625000D01*
X145675812Y-98500518D01*
X145639502Y-98380820D01*
X145580537Y-98270506D01*
X145567325Y-98254407D01*
X145610841Y-98172993D01*
X145670024Y-97977895D01*
X145690007Y-97775000D01*
X145670024Y-97572105D01*
X145610841Y-97377007D01*
X145514734Y-97197203D01*
X145385396Y-97039604D01*
X145227797Y-96910266D01*
X145047993Y-96814159D01*
X144852895Y-96754976D01*
X144700838Y-96740000D01*
X144099162Y-96740000D01*
X143947105Y-96754976D01*
X143752007Y-96814159D01*
X143572203Y-96910266D01*
X143414604Y-97039604D01*
X143285266Y-97197203D01*
X143189159Y-97377007D01*
X143129976Y-97572105D01*
X143109993Y-97775000D01*
X139660000Y-97775000D01*
X139660000Y-94660000D01*
X158340000Y-94660000D01*
X158340001Y-103340000D01*
G37*
%TD.AperFunction*%
%TD*%
M02*
