%TF.GenerationSoftware,KiCad,Pcbnew,(5.1.10)-1*%
%TF.CreationDate,2022-04-29T17:39:29-06:00*%
%TF.ProjectId,CTRL,4354524c-2e6b-4696-9361-645f70636258,rev?*%
%TF.SameCoordinates,Original*%
%TF.FileFunction,Copper,L1,Top*%
%TF.FilePolarity,Positive*%
%FSLAX46Y46*%
G04 Gerber Fmt 4.6, Leading zero omitted, Abs format (unit mm)*
G04 Created by KiCad (PCBNEW (5.1.10)-1) date 2022-04-29 17:39:29*
%MOMM*%
%LPD*%
G01*
G04 APERTURE LIST*
%TA.AperFunction,SMDPad,CuDef*%
%ADD10R,2.000000X1.600000*%
%TD*%
%TA.AperFunction,SMDPad,CuDef*%
%ADD11R,4.000000X2.000000*%
%TD*%
%TA.AperFunction,ComponentPad*%
%ADD12O,0.800000X1.300000*%
%TD*%
%TA.AperFunction,SMDPad,CuDef*%
%ADD13R,2.540000X3.510000*%
%TD*%
%TA.AperFunction,Conductor*%
%ADD14C,0.250000*%
%TD*%
%TA.AperFunction,Conductor*%
%ADD15C,0.254000*%
%TD*%
%TA.AperFunction,Conductor*%
%ADD16C,0.100000*%
%TD*%
G04 APERTURE END LIST*
D10*
%TO.P,SW1,1*%
%TO.N,Net-(BT1-Pad1)*%
X120700000Y-78000000D03*
%TO.P,SW1,2*%
%TO.N,Net-(RV1-Pad1)*%
X115300000Y-78000000D03*
%TD*%
D11*
%TO.P,RV1,5*%
%TO.N,N/C*%
X126250000Y-68500000D03*
%TO.P,RV1,4*%
X126250000Y-63500000D03*
%TO.P,RV1,3*%
%TO.N,Net-(RV1-Pad3)*%
X109750000Y-68500000D03*
%TO.P,RV1,2*%
%TO.N,Net-(J2-Pad1)*%
X109750000Y-66000000D03*
%TO.P,RV1,1*%
%TO.N,Net-(RV1-Pad1)*%
X109750000Y-63500000D03*
%TD*%
D12*
%TO.P,J2,2*%
%TO.N,Net-(BT1-Pad2)*%
X117750000Y-53000000D03*
%TO.P,J2,1*%
%TO.N,Net-(J2-Pad1)*%
%TA.AperFunction,ComponentPad*%
G36*
G01*
X119400000Y-52550000D02*
X119400000Y-53450000D01*
G75*
G02*
X119200000Y-53650000I-200000J0D01*
G01*
X118800000Y-53650000D01*
G75*
G02*
X118600000Y-53450000I0J200000D01*
G01*
X118600000Y-52550000D01*
G75*
G02*
X118800000Y-52350000I200000J0D01*
G01*
X119200000Y-52350000D01*
G75*
G02*
X119400000Y-52550000I0J-200000D01*
G01*
G37*
%TD.AperFunction*%
%TD*%
D13*
%TO.P,BT1,2*%
%TO.N,Net-(BT1-Pad2)*%
X103100000Y-94000000D03*
%TO.P,BT1,1*%
%TO.N,Net-(BT1-Pad1)*%
X132460000Y-94000000D03*
%TD*%
D14*
%TO.N,Net-(BT1-Pad2)*%
X103100000Y-94000000D02*
X103100000Y-53100000D01*
X103200000Y-53000000D02*
X117750000Y-53000000D01*
X103100000Y-53100000D02*
X103200000Y-53000000D01*
%TO.N,Net-(BT1-Pad1)*%
X132460000Y-89760000D02*
X120700000Y-78000000D01*
X132460000Y-94000000D02*
X132460000Y-89760000D01*
%TO.N,Net-(J2-Pad1)*%
X119000000Y-53025318D02*
X119000000Y-53000000D01*
X117174999Y-54850319D02*
X119000000Y-53025318D01*
X117174999Y-60825001D02*
X117174999Y-54850319D01*
X112000000Y-66000000D02*
X117174999Y-60825001D01*
X109750000Y-66000000D02*
X112000000Y-66000000D01*
%TO.N,Net-(RV1-Pad1)*%
X107424999Y-70124999D02*
X115300000Y-78000000D01*
X107500000Y-63500000D02*
X107424999Y-63575001D01*
X107424999Y-63575001D02*
X107424999Y-70124999D01*
X109750000Y-63500000D02*
X107500000Y-63500000D01*
%TD*%
D15*
%TO.N,Net-(BT1-Pad1)*%
X134340001Y-92068395D02*
X134319502Y-92000820D01*
X134260537Y-91890506D01*
X134181185Y-91793815D01*
X134084494Y-91714463D01*
X133974180Y-91655498D01*
X133854482Y-91619188D01*
X133730000Y-91606928D01*
X132745750Y-91610000D01*
X132587000Y-91768750D01*
X132587000Y-93873000D01*
X132607000Y-93873000D01*
X132607000Y-94127000D01*
X132587000Y-94127000D01*
X132587000Y-96231250D01*
X132745750Y-96390000D01*
X133730000Y-96393072D01*
X133854482Y-96380812D01*
X133974180Y-96344502D01*
X134084494Y-96285537D01*
X134181185Y-96206185D01*
X134260537Y-96109494D01*
X134319502Y-95999180D01*
X134340001Y-95931605D01*
X134340001Y-106340000D01*
X100660000Y-106340000D01*
X100660000Y-92245000D01*
X101191928Y-92245000D01*
X101191928Y-95755000D01*
X101204188Y-95879482D01*
X101240498Y-95999180D01*
X101299463Y-96109494D01*
X101378815Y-96206185D01*
X101475506Y-96285537D01*
X101585820Y-96344502D01*
X101705518Y-96380812D01*
X101830000Y-96393072D01*
X104370000Y-96393072D01*
X104494482Y-96380812D01*
X104614180Y-96344502D01*
X104724494Y-96285537D01*
X104821185Y-96206185D01*
X104900537Y-96109494D01*
X104959502Y-95999180D01*
X104995812Y-95879482D01*
X105008072Y-95755000D01*
X130551928Y-95755000D01*
X130564188Y-95879482D01*
X130600498Y-95999180D01*
X130659463Y-96109494D01*
X130738815Y-96206185D01*
X130835506Y-96285537D01*
X130945820Y-96344502D01*
X131065518Y-96380812D01*
X131190000Y-96393072D01*
X132174250Y-96390000D01*
X132333000Y-96231250D01*
X132333000Y-94127000D01*
X130713750Y-94127000D01*
X130555000Y-94285750D01*
X130551928Y-95755000D01*
X105008072Y-95755000D01*
X105008072Y-92245000D01*
X130551928Y-92245000D01*
X130555000Y-93714250D01*
X130713750Y-93873000D01*
X132333000Y-93873000D01*
X132333000Y-91768750D01*
X132174250Y-91610000D01*
X131190000Y-91606928D01*
X131065518Y-91619188D01*
X130945820Y-91655498D01*
X130835506Y-91714463D01*
X130738815Y-91793815D01*
X130659463Y-91890506D01*
X130600498Y-92000820D01*
X130564188Y-92120518D01*
X130551928Y-92245000D01*
X105008072Y-92245000D01*
X104995812Y-92120518D01*
X104959502Y-92000820D01*
X104900537Y-91890506D01*
X104821185Y-91793815D01*
X104724494Y-91714463D01*
X104614180Y-91655498D01*
X104494482Y-91619188D01*
X104370000Y-91606928D01*
X103860000Y-91606928D01*
X103860000Y-53760000D01*
X116849028Y-53760000D01*
X116885266Y-53827797D01*
X116992299Y-53958218D01*
X116663997Y-54286520D01*
X116634999Y-54310318D01*
X116611201Y-54339316D01*
X116611200Y-54339317D01*
X116540025Y-54426043D01*
X116469453Y-54558073D01*
X116425997Y-54701334D01*
X116411323Y-54850319D01*
X116415000Y-54887651D01*
X116414999Y-60510199D01*
X112384016Y-64541183D01*
X112388072Y-64500000D01*
X112388072Y-62500000D01*
X112375812Y-62375518D01*
X112339502Y-62255820D01*
X112280537Y-62145506D01*
X112201185Y-62048815D01*
X112104494Y-61969463D01*
X111994180Y-61910498D01*
X111874482Y-61874188D01*
X111750000Y-61861928D01*
X107750000Y-61861928D01*
X107625518Y-61874188D01*
X107505820Y-61910498D01*
X107395506Y-61969463D01*
X107298815Y-62048815D01*
X107219463Y-62145506D01*
X107160498Y-62255820D01*
X107124188Y-62375518D01*
X107111928Y-62500000D01*
X107111928Y-62845674D01*
X107075724Y-62865026D01*
X106959999Y-62959999D01*
X106936199Y-62988999D01*
X106913999Y-63011199D01*
X106884998Y-63035000D01*
X106829870Y-63102175D01*
X106790025Y-63150725D01*
X106759543Y-63207753D01*
X106719453Y-63282755D01*
X106675996Y-63426016D01*
X106664999Y-63537669D01*
X106664999Y-63537679D01*
X106661323Y-63575001D01*
X106664999Y-63612324D01*
X106665000Y-70087667D01*
X106661323Y-70124999D01*
X106675997Y-70273984D01*
X106719453Y-70417245D01*
X106790025Y-70549275D01*
X106861200Y-70636001D01*
X106884999Y-70665000D01*
X106913997Y-70688798D01*
X113661928Y-77436730D01*
X113661928Y-78800000D01*
X113674188Y-78924482D01*
X113710498Y-79044180D01*
X113769463Y-79154494D01*
X113848815Y-79251185D01*
X113945506Y-79330537D01*
X114055820Y-79389502D01*
X114175518Y-79425812D01*
X114300000Y-79438072D01*
X116300000Y-79438072D01*
X116424482Y-79425812D01*
X116544180Y-79389502D01*
X116654494Y-79330537D01*
X116751185Y-79251185D01*
X116830537Y-79154494D01*
X116889502Y-79044180D01*
X116925812Y-78924482D01*
X116938072Y-78800000D01*
X119061928Y-78800000D01*
X119074188Y-78924482D01*
X119110498Y-79044180D01*
X119169463Y-79154494D01*
X119248815Y-79251185D01*
X119345506Y-79330537D01*
X119455820Y-79389502D01*
X119575518Y-79425812D01*
X119700000Y-79438072D01*
X120414250Y-79435000D01*
X120573000Y-79276250D01*
X120573000Y-78127000D01*
X120827000Y-78127000D01*
X120827000Y-79276250D01*
X120985750Y-79435000D01*
X121700000Y-79438072D01*
X121824482Y-79425812D01*
X121944180Y-79389502D01*
X122054494Y-79330537D01*
X122151185Y-79251185D01*
X122230537Y-79154494D01*
X122289502Y-79044180D01*
X122325812Y-78924482D01*
X122338072Y-78800000D01*
X122335000Y-78285750D01*
X122176250Y-78127000D01*
X120827000Y-78127000D01*
X120573000Y-78127000D01*
X119223750Y-78127000D01*
X119065000Y-78285750D01*
X119061928Y-78800000D01*
X116938072Y-78800000D01*
X116938072Y-77200000D01*
X119061928Y-77200000D01*
X119065000Y-77714250D01*
X119223750Y-77873000D01*
X120573000Y-77873000D01*
X120573000Y-76723750D01*
X120827000Y-76723750D01*
X120827000Y-77873000D01*
X122176250Y-77873000D01*
X122335000Y-77714250D01*
X122338072Y-77200000D01*
X122325812Y-77075518D01*
X122289502Y-76955820D01*
X122230537Y-76845506D01*
X122151185Y-76748815D01*
X122054494Y-76669463D01*
X121944180Y-76610498D01*
X121824482Y-76574188D01*
X121700000Y-76561928D01*
X120985750Y-76565000D01*
X120827000Y-76723750D01*
X120573000Y-76723750D01*
X120414250Y-76565000D01*
X119700000Y-76561928D01*
X119575518Y-76574188D01*
X119455820Y-76610498D01*
X119345506Y-76669463D01*
X119248815Y-76748815D01*
X119169463Y-76845506D01*
X119110498Y-76955820D01*
X119074188Y-77075518D01*
X119061928Y-77200000D01*
X116938072Y-77200000D01*
X116925812Y-77075518D01*
X116889502Y-76955820D01*
X116830537Y-76845506D01*
X116751185Y-76748815D01*
X116654494Y-76669463D01*
X116544180Y-76610498D01*
X116424482Y-76574188D01*
X116300000Y-76561928D01*
X114936730Y-76561928D01*
X109888391Y-71513589D01*
X116865000Y-71513589D01*
X116865000Y-71786411D01*
X116918225Y-72053989D01*
X117022629Y-72306043D01*
X117174201Y-72532886D01*
X117367114Y-72725799D01*
X117593957Y-72877371D01*
X117846011Y-72981775D01*
X118113589Y-73035000D01*
X118386411Y-73035000D01*
X118653989Y-72981775D01*
X118906043Y-72877371D01*
X119132886Y-72725799D01*
X119325799Y-72532886D01*
X119477371Y-72306043D01*
X119581775Y-72053989D01*
X119635000Y-71786411D01*
X119635000Y-71513589D01*
X119581775Y-71246011D01*
X119477371Y-70993957D01*
X119325799Y-70767114D01*
X119132886Y-70574201D01*
X118906043Y-70422629D01*
X118653989Y-70318225D01*
X118386411Y-70265000D01*
X118113589Y-70265000D01*
X117846011Y-70318225D01*
X117593957Y-70422629D01*
X117367114Y-70574201D01*
X117174201Y-70767114D01*
X117022629Y-70993957D01*
X116918225Y-71246011D01*
X116865000Y-71513589D01*
X109888391Y-71513589D01*
X108512873Y-70138072D01*
X111750000Y-70138072D01*
X111874482Y-70125812D01*
X111994180Y-70089502D01*
X112104494Y-70030537D01*
X112201185Y-69951185D01*
X112280537Y-69854494D01*
X112339502Y-69744180D01*
X112375812Y-69624482D01*
X112388072Y-69500000D01*
X112388072Y-67500000D01*
X123611928Y-67500000D01*
X123611928Y-69500000D01*
X123624188Y-69624482D01*
X123660498Y-69744180D01*
X123719463Y-69854494D01*
X123798815Y-69951185D01*
X123895506Y-70030537D01*
X124005820Y-70089502D01*
X124125518Y-70125812D01*
X124250000Y-70138072D01*
X128250000Y-70138072D01*
X128374482Y-70125812D01*
X128494180Y-70089502D01*
X128604494Y-70030537D01*
X128701185Y-69951185D01*
X128780537Y-69854494D01*
X128839502Y-69744180D01*
X128875812Y-69624482D01*
X128888072Y-69500000D01*
X128888072Y-67500000D01*
X128875812Y-67375518D01*
X128839502Y-67255820D01*
X128780537Y-67145506D01*
X128701185Y-67048815D01*
X128604494Y-66969463D01*
X128494180Y-66910498D01*
X128374482Y-66874188D01*
X128250000Y-66861928D01*
X124250000Y-66861928D01*
X124125518Y-66874188D01*
X124005820Y-66910498D01*
X123895506Y-66969463D01*
X123798815Y-67048815D01*
X123719463Y-67145506D01*
X123660498Y-67255820D01*
X123624188Y-67375518D01*
X123611928Y-67500000D01*
X112388072Y-67500000D01*
X112375812Y-67375518D01*
X112339502Y-67255820D01*
X112336391Y-67250000D01*
X112339502Y-67244180D01*
X112375812Y-67124482D01*
X112388072Y-67000000D01*
X112388072Y-66654326D01*
X112424276Y-66634974D01*
X112540001Y-66540001D01*
X112563804Y-66510997D01*
X116574801Y-62500000D01*
X123611928Y-62500000D01*
X123611928Y-64500000D01*
X123624188Y-64624482D01*
X123660498Y-64744180D01*
X123719463Y-64854494D01*
X123798815Y-64951185D01*
X123895506Y-65030537D01*
X124005820Y-65089502D01*
X124125518Y-65125812D01*
X124250000Y-65138072D01*
X128250000Y-65138072D01*
X128374482Y-65125812D01*
X128494180Y-65089502D01*
X128604494Y-65030537D01*
X128701185Y-64951185D01*
X128780537Y-64854494D01*
X128839502Y-64744180D01*
X128875812Y-64624482D01*
X128888072Y-64500000D01*
X128888072Y-62500000D01*
X128875812Y-62375518D01*
X128839502Y-62255820D01*
X128780537Y-62145506D01*
X128701185Y-62048815D01*
X128604494Y-61969463D01*
X128494180Y-61910498D01*
X128374482Y-61874188D01*
X128250000Y-61861928D01*
X124250000Y-61861928D01*
X124125518Y-61874188D01*
X124005820Y-61910498D01*
X123895506Y-61969463D01*
X123798815Y-62048815D01*
X123719463Y-62145506D01*
X123660498Y-62255820D01*
X123624188Y-62375518D01*
X123611928Y-62500000D01*
X116574801Y-62500000D01*
X117536094Y-61538708D01*
X117593957Y-61577371D01*
X117846011Y-61681775D01*
X118113589Y-61735000D01*
X118386411Y-61735000D01*
X118653989Y-61681775D01*
X118906043Y-61577371D01*
X119132886Y-61425799D01*
X119325799Y-61232886D01*
X119477371Y-61006043D01*
X119581775Y-60753989D01*
X119635000Y-60486411D01*
X119635000Y-60213589D01*
X119581775Y-59946011D01*
X119477371Y-59693957D01*
X119325799Y-59467114D01*
X119132886Y-59274201D01*
X118906043Y-59122629D01*
X118653989Y-59018225D01*
X118386411Y-58965000D01*
X118113589Y-58965000D01*
X117934999Y-59000524D01*
X117934999Y-55165120D01*
X118812048Y-54288072D01*
X119200000Y-54288072D01*
X119363500Y-54271969D01*
X119520716Y-54224278D01*
X119665608Y-54146831D01*
X119792606Y-54042606D01*
X119896831Y-53915608D01*
X119974278Y-53770716D01*
X120021969Y-53613500D01*
X120038072Y-53450000D01*
X120038072Y-52550000D01*
X120021969Y-52386500D01*
X119974278Y-52229284D01*
X119896831Y-52084392D01*
X119792606Y-51957394D01*
X119665608Y-51853169D01*
X119520716Y-51775722D01*
X119363500Y-51728031D01*
X119200000Y-51711928D01*
X118800000Y-51711928D01*
X118636500Y-51728031D01*
X118479284Y-51775722D01*
X118334392Y-51853169D01*
X118308106Y-51874741D01*
X118147993Y-51789159D01*
X117952895Y-51729976D01*
X117750000Y-51709993D01*
X117547106Y-51729976D01*
X117352008Y-51789159D01*
X117172204Y-51885266D01*
X117014605Y-52014604D01*
X116885267Y-52172203D01*
X116849028Y-52240000D01*
X103237322Y-52240000D01*
X103199999Y-52236324D01*
X103162677Y-52240000D01*
X103162667Y-52240000D01*
X103051014Y-52250997D01*
X102907753Y-52294454D01*
X102775724Y-52365026D01*
X102659999Y-52459999D01*
X102636196Y-52489003D01*
X102588998Y-52536201D01*
X102560000Y-52559999D01*
X102536202Y-52588997D01*
X102536201Y-52588998D01*
X102465026Y-52675724D01*
X102394454Y-52807754D01*
X102350998Y-52951015D01*
X102336324Y-53100000D01*
X102340001Y-53137333D01*
X102340000Y-91606928D01*
X101830000Y-91606928D01*
X101705518Y-91619188D01*
X101585820Y-91655498D01*
X101475506Y-91714463D01*
X101378815Y-91793815D01*
X101299463Y-91890506D01*
X101240498Y-92000820D01*
X101204188Y-92120518D01*
X101191928Y-92245000D01*
X100660000Y-92245000D01*
X100660000Y-50660000D01*
X134340000Y-50660000D01*
X134340001Y-92068395D01*
%TA.AperFunction,Conductor*%
D16*
G36*
X134340001Y-92068395D02*
G01*
X134319502Y-92000820D01*
X134260537Y-91890506D01*
X134181185Y-91793815D01*
X134084494Y-91714463D01*
X133974180Y-91655498D01*
X133854482Y-91619188D01*
X133730000Y-91606928D01*
X132745750Y-91610000D01*
X132587000Y-91768750D01*
X132587000Y-93873000D01*
X132607000Y-93873000D01*
X132607000Y-94127000D01*
X132587000Y-94127000D01*
X132587000Y-96231250D01*
X132745750Y-96390000D01*
X133730000Y-96393072D01*
X133854482Y-96380812D01*
X133974180Y-96344502D01*
X134084494Y-96285537D01*
X134181185Y-96206185D01*
X134260537Y-96109494D01*
X134319502Y-95999180D01*
X134340001Y-95931605D01*
X134340001Y-106340000D01*
X100660000Y-106340000D01*
X100660000Y-92245000D01*
X101191928Y-92245000D01*
X101191928Y-95755000D01*
X101204188Y-95879482D01*
X101240498Y-95999180D01*
X101299463Y-96109494D01*
X101378815Y-96206185D01*
X101475506Y-96285537D01*
X101585820Y-96344502D01*
X101705518Y-96380812D01*
X101830000Y-96393072D01*
X104370000Y-96393072D01*
X104494482Y-96380812D01*
X104614180Y-96344502D01*
X104724494Y-96285537D01*
X104821185Y-96206185D01*
X104900537Y-96109494D01*
X104959502Y-95999180D01*
X104995812Y-95879482D01*
X105008072Y-95755000D01*
X130551928Y-95755000D01*
X130564188Y-95879482D01*
X130600498Y-95999180D01*
X130659463Y-96109494D01*
X130738815Y-96206185D01*
X130835506Y-96285537D01*
X130945820Y-96344502D01*
X131065518Y-96380812D01*
X131190000Y-96393072D01*
X132174250Y-96390000D01*
X132333000Y-96231250D01*
X132333000Y-94127000D01*
X130713750Y-94127000D01*
X130555000Y-94285750D01*
X130551928Y-95755000D01*
X105008072Y-95755000D01*
X105008072Y-92245000D01*
X130551928Y-92245000D01*
X130555000Y-93714250D01*
X130713750Y-93873000D01*
X132333000Y-93873000D01*
X132333000Y-91768750D01*
X132174250Y-91610000D01*
X131190000Y-91606928D01*
X131065518Y-91619188D01*
X130945820Y-91655498D01*
X130835506Y-91714463D01*
X130738815Y-91793815D01*
X130659463Y-91890506D01*
X130600498Y-92000820D01*
X130564188Y-92120518D01*
X130551928Y-92245000D01*
X105008072Y-92245000D01*
X104995812Y-92120518D01*
X104959502Y-92000820D01*
X104900537Y-91890506D01*
X104821185Y-91793815D01*
X104724494Y-91714463D01*
X104614180Y-91655498D01*
X104494482Y-91619188D01*
X104370000Y-91606928D01*
X103860000Y-91606928D01*
X103860000Y-53760000D01*
X116849028Y-53760000D01*
X116885266Y-53827797D01*
X116992299Y-53958218D01*
X116663997Y-54286520D01*
X116634999Y-54310318D01*
X116611201Y-54339316D01*
X116611200Y-54339317D01*
X116540025Y-54426043D01*
X116469453Y-54558073D01*
X116425997Y-54701334D01*
X116411323Y-54850319D01*
X116415000Y-54887651D01*
X116414999Y-60510199D01*
X112384016Y-64541183D01*
X112388072Y-64500000D01*
X112388072Y-62500000D01*
X112375812Y-62375518D01*
X112339502Y-62255820D01*
X112280537Y-62145506D01*
X112201185Y-62048815D01*
X112104494Y-61969463D01*
X111994180Y-61910498D01*
X111874482Y-61874188D01*
X111750000Y-61861928D01*
X107750000Y-61861928D01*
X107625518Y-61874188D01*
X107505820Y-61910498D01*
X107395506Y-61969463D01*
X107298815Y-62048815D01*
X107219463Y-62145506D01*
X107160498Y-62255820D01*
X107124188Y-62375518D01*
X107111928Y-62500000D01*
X107111928Y-62845674D01*
X107075724Y-62865026D01*
X106959999Y-62959999D01*
X106936199Y-62988999D01*
X106913999Y-63011199D01*
X106884998Y-63035000D01*
X106829870Y-63102175D01*
X106790025Y-63150725D01*
X106759543Y-63207753D01*
X106719453Y-63282755D01*
X106675996Y-63426016D01*
X106664999Y-63537669D01*
X106664999Y-63537679D01*
X106661323Y-63575001D01*
X106664999Y-63612324D01*
X106665000Y-70087667D01*
X106661323Y-70124999D01*
X106675997Y-70273984D01*
X106719453Y-70417245D01*
X106790025Y-70549275D01*
X106861200Y-70636001D01*
X106884999Y-70665000D01*
X106913997Y-70688798D01*
X113661928Y-77436730D01*
X113661928Y-78800000D01*
X113674188Y-78924482D01*
X113710498Y-79044180D01*
X113769463Y-79154494D01*
X113848815Y-79251185D01*
X113945506Y-79330537D01*
X114055820Y-79389502D01*
X114175518Y-79425812D01*
X114300000Y-79438072D01*
X116300000Y-79438072D01*
X116424482Y-79425812D01*
X116544180Y-79389502D01*
X116654494Y-79330537D01*
X116751185Y-79251185D01*
X116830537Y-79154494D01*
X116889502Y-79044180D01*
X116925812Y-78924482D01*
X116938072Y-78800000D01*
X119061928Y-78800000D01*
X119074188Y-78924482D01*
X119110498Y-79044180D01*
X119169463Y-79154494D01*
X119248815Y-79251185D01*
X119345506Y-79330537D01*
X119455820Y-79389502D01*
X119575518Y-79425812D01*
X119700000Y-79438072D01*
X120414250Y-79435000D01*
X120573000Y-79276250D01*
X120573000Y-78127000D01*
X120827000Y-78127000D01*
X120827000Y-79276250D01*
X120985750Y-79435000D01*
X121700000Y-79438072D01*
X121824482Y-79425812D01*
X121944180Y-79389502D01*
X122054494Y-79330537D01*
X122151185Y-79251185D01*
X122230537Y-79154494D01*
X122289502Y-79044180D01*
X122325812Y-78924482D01*
X122338072Y-78800000D01*
X122335000Y-78285750D01*
X122176250Y-78127000D01*
X120827000Y-78127000D01*
X120573000Y-78127000D01*
X119223750Y-78127000D01*
X119065000Y-78285750D01*
X119061928Y-78800000D01*
X116938072Y-78800000D01*
X116938072Y-77200000D01*
X119061928Y-77200000D01*
X119065000Y-77714250D01*
X119223750Y-77873000D01*
X120573000Y-77873000D01*
X120573000Y-76723750D01*
X120827000Y-76723750D01*
X120827000Y-77873000D01*
X122176250Y-77873000D01*
X122335000Y-77714250D01*
X122338072Y-77200000D01*
X122325812Y-77075518D01*
X122289502Y-76955820D01*
X122230537Y-76845506D01*
X122151185Y-76748815D01*
X122054494Y-76669463D01*
X121944180Y-76610498D01*
X121824482Y-76574188D01*
X121700000Y-76561928D01*
X120985750Y-76565000D01*
X120827000Y-76723750D01*
X120573000Y-76723750D01*
X120414250Y-76565000D01*
X119700000Y-76561928D01*
X119575518Y-76574188D01*
X119455820Y-76610498D01*
X119345506Y-76669463D01*
X119248815Y-76748815D01*
X119169463Y-76845506D01*
X119110498Y-76955820D01*
X119074188Y-77075518D01*
X119061928Y-77200000D01*
X116938072Y-77200000D01*
X116925812Y-77075518D01*
X116889502Y-76955820D01*
X116830537Y-76845506D01*
X116751185Y-76748815D01*
X116654494Y-76669463D01*
X116544180Y-76610498D01*
X116424482Y-76574188D01*
X116300000Y-76561928D01*
X114936730Y-76561928D01*
X109888391Y-71513589D01*
X116865000Y-71513589D01*
X116865000Y-71786411D01*
X116918225Y-72053989D01*
X117022629Y-72306043D01*
X117174201Y-72532886D01*
X117367114Y-72725799D01*
X117593957Y-72877371D01*
X117846011Y-72981775D01*
X118113589Y-73035000D01*
X118386411Y-73035000D01*
X118653989Y-72981775D01*
X118906043Y-72877371D01*
X119132886Y-72725799D01*
X119325799Y-72532886D01*
X119477371Y-72306043D01*
X119581775Y-72053989D01*
X119635000Y-71786411D01*
X119635000Y-71513589D01*
X119581775Y-71246011D01*
X119477371Y-70993957D01*
X119325799Y-70767114D01*
X119132886Y-70574201D01*
X118906043Y-70422629D01*
X118653989Y-70318225D01*
X118386411Y-70265000D01*
X118113589Y-70265000D01*
X117846011Y-70318225D01*
X117593957Y-70422629D01*
X117367114Y-70574201D01*
X117174201Y-70767114D01*
X117022629Y-70993957D01*
X116918225Y-71246011D01*
X116865000Y-71513589D01*
X109888391Y-71513589D01*
X108512873Y-70138072D01*
X111750000Y-70138072D01*
X111874482Y-70125812D01*
X111994180Y-70089502D01*
X112104494Y-70030537D01*
X112201185Y-69951185D01*
X112280537Y-69854494D01*
X112339502Y-69744180D01*
X112375812Y-69624482D01*
X112388072Y-69500000D01*
X112388072Y-67500000D01*
X123611928Y-67500000D01*
X123611928Y-69500000D01*
X123624188Y-69624482D01*
X123660498Y-69744180D01*
X123719463Y-69854494D01*
X123798815Y-69951185D01*
X123895506Y-70030537D01*
X124005820Y-70089502D01*
X124125518Y-70125812D01*
X124250000Y-70138072D01*
X128250000Y-70138072D01*
X128374482Y-70125812D01*
X128494180Y-70089502D01*
X128604494Y-70030537D01*
X128701185Y-69951185D01*
X128780537Y-69854494D01*
X128839502Y-69744180D01*
X128875812Y-69624482D01*
X128888072Y-69500000D01*
X128888072Y-67500000D01*
X128875812Y-67375518D01*
X128839502Y-67255820D01*
X128780537Y-67145506D01*
X128701185Y-67048815D01*
X128604494Y-66969463D01*
X128494180Y-66910498D01*
X128374482Y-66874188D01*
X128250000Y-66861928D01*
X124250000Y-66861928D01*
X124125518Y-66874188D01*
X124005820Y-66910498D01*
X123895506Y-66969463D01*
X123798815Y-67048815D01*
X123719463Y-67145506D01*
X123660498Y-67255820D01*
X123624188Y-67375518D01*
X123611928Y-67500000D01*
X112388072Y-67500000D01*
X112375812Y-67375518D01*
X112339502Y-67255820D01*
X112336391Y-67250000D01*
X112339502Y-67244180D01*
X112375812Y-67124482D01*
X112388072Y-67000000D01*
X112388072Y-66654326D01*
X112424276Y-66634974D01*
X112540001Y-66540001D01*
X112563804Y-66510997D01*
X116574801Y-62500000D01*
X123611928Y-62500000D01*
X123611928Y-64500000D01*
X123624188Y-64624482D01*
X123660498Y-64744180D01*
X123719463Y-64854494D01*
X123798815Y-64951185D01*
X123895506Y-65030537D01*
X124005820Y-65089502D01*
X124125518Y-65125812D01*
X124250000Y-65138072D01*
X128250000Y-65138072D01*
X128374482Y-65125812D01*
X128494180Y-65089502D01*
X128604494Y-65030537D01*
X128701185Y-64951185D01*
X128780537Y-64854494D01*
X128839502Y-64744180D01*
X128875812Y-64624482D01*
X128888072Y-64500000D01*
X128888072Y-62500000D01*
X128875812Y-62375518D01*
X128839502Y-62255820D01*
X128780537Y-62145506D01*
X128701185Y-62048815D01*
X128604494Y-61969463D01*
X128494180Y-61910498D01*
X128374482Y-61874188D01*
X128250000Y-61861928D01*
X124250000Y-61861928D01*
X124125518Y-61874188D01*
X124005820Y-61910498D01*
X123895506Y-61969463D01*
X123798815Y-62048815D01*
X123719463Y-62145506D01*
X123660498Y-62255820D01*
X123624188Y-62375518D01*
X123611928Y-62500000D01*
X116574801Y-62500000D01*
X117536094Y-61538708D01*
X117593957Y-61577371D01*
X117846011Y-61681775D01*
X118113589Y-61735000D01*
X118386411Y-61735000D01*
X118653989Y-61681775D01*
X118906043Y-61577371D01*
X119132886Y-61425799D01*
X119325799Y-61232886D01*
X119477371Y-61006043D01*
X119581775Y-60753989D01*
X119635000Y-60486411D01*
X119635000Y-60213589D01*
X119581775Y-59946011D01*
X119477371Y-59693957D01*
X119325799Y-59467114D01*
X119132886Y-59274201D01*
X118906043Y-59122629D01*
X118653989Y-59018225D01*
X118386411Y-58965000D01*
X118113589Y-58965000D01*
X117934999Y-59000524D01*
X117934999Y-55165120D01*
X118812048Y-54288072D01*
X119200000Y-54288072D01*
X119363500Y-54271969D01*
X119520716Y-54224278D01*
X119665608Y-54146831D01*
X119792606Y-54042606D01*
X119896831Y-53915608D01*
X119974278Y-53770716D01*
X120021969Y-53613500D01*
X120038072Y-53450000D01*
X120038072Y-52550000D01*
X120021969Y-52386500D01*
X119974278Y-52229284D01*
X119896831Y-52084392D01*
X119792606Y-51957394D01*
X119665608Y-51853169D01*
X119520716Y-51775722D01*
X119363500Y-51728031D01*
X119200000Y-51711928D01*
X118800000Y-51711928D01*
X118636500Y-51728031D01*
X118479284Y-51775722D01*
X118334392Y-51853169D01*
X118308106Y-51874741D01*
X118147993Y-51789159D01*
X117952895Y-51729976D01*
X117750000Y-51709993D01*
X117547106Y-51729976D01*
X117352008Y-51789159D01*
X117172204Y-51885266D01*
X117014605Y-52014604D01*
X116885267Y-52172203D01*
X116849028Y-52240000D01*
X103237322Y-52240000D01*
X103199999Y-52236324D01*
X103162677Y-52240000D01*
X103162667Y-52240000D01*
X103051014Y-52250997D01*
X102907753Y-52294454D01*
X102775724Y-52365026D01*
X102659999Y-52459999D01*
X102636196Y-52489003D01*
X102588998Y-52536201D01*
X102560000Y-52559999D01*
X102536202Y-52588997D01*
X102536201Y-52588998D01*
X102465026Y-52675724D01*
X102394454Y-52807754D01*
X102350998Y-52951015D01*
X102336324Y-53100000D01*
X102340001Y-53137333D01*
X102340000Y-91606928D01*
X101830000Y-91606928D01*
X101705518Y-91619188D01*
X101585820Y-91655498D01*
X101475506Y-91714463D01*
X101378815Y-91793815D01*
X101299463Y-91890506D01*
X101240498Y-92000820D01*
X101204188Y-92120518D01*
X101191928Y-92245000D01*
X100660000Y-92245000D01*
X100660000Y-50660000D01*
X134340000Y-50660000D01*
X134340001Y-92068395D01*
G37*
%TD.AperFunction*%
%TD*%
M02*
