%TF.GenerationSoftware,KiCad,Pcbnew,(5.1.10)-1*%
%TF.CreationDate,2022-04-29T17:40:20-06:00*%
%TF.ProjectId,CTRL,4354524c-2e6b-4696-9361-645f70636258,rev?*%
%TF.SameCoordinates,Original*%
%TF.FileFunction,Copper,L2,Bot*%
%TF.FilePolarity,Positive*%
%FSLAX46Y46*%
G04 Gerber Fmt 4.6, Leading zero omitted, Abs format (unit mm)*
G04 Created by KiCad (PCBNEW (5.1.10)-1) date 2022-04-29 17:40:20*
%MOMM*%
%LPD*%
G01*
G04 APERTURE LIST*
%TA.AperFunction,ComponentPad*%
%ADD10O,0.800000X1.300000*%
%TD*%
%TA.AperFunction,Conductor*%
%ADD11C,0.254000*%
%TD*%
%TA.AperFunction,Conductor*%
%ADD12C,0.100000*%
%TD*%
G04 APERTURE END LIST*
D10*
%TO.P,J2,2*%
%TO.N,Net-(BT1-Pad2)*%
X117750000Y-53000000D03*
%TO.P,J2,1*%
%TO.N,Net-(J2-Pad1)*%
%TA.AperFunction,ComponentPad*%
G36*
G01*
X119400000Y-52550000D02*
X119400000Y-53450000D01*
G75*
G02*
X119200000Y-53650000I-200000J0D01*
G01*
X118800000Y-53650000D01*
G75*
G02*
X118600000Y-53450000I0J200000D01*
G01*
X118600000Y-52550000D01*
G75*
G02*
X118800000Y-52350000I200000J0D01*
G01*
X119200000Y-52350000D01*
G75*
G02*
X119400000Y-52550000I0J-200000D01*
G01*
G37*
%TD.AperFunction*%
%TD*%
D11*
%TO.N,Net-(BT1-Pad2)*%
X134340001Y-106340000D02*
X100660000Y-106340000D01*
X100660000Y-71513589D01*
X116865000Y-71513589D01*
X116865000Y-71786411D01*
X116918225Y-72053989D01*
X117022629Y-72306043D01*
X117174201Y-72532886D01*
X117367114Y-72725799D01*
X117593957Y-72877371D01*
X117846011Y-72981775D01*
X118113589Y-73035000D01*
X118386411Y-73035000D01*
X118653989Y-72981775D01*
X118906043Y-72877371D01*
X119132886Y-72725799D01*
X119325799Y-72532886D01*
X119477371Y-72306043D01*
X119581775Y-72053989D01*
X119635000Y-71786411D01*
X119635000Y-71513589D01*
X119581775Y-71246011D01*
X119477371Y-70993957D01*
X119325799Y-70767114D01*
X119132886Y-70574201D01*
X118906043Y-70422629D01*
X118653989Y-70318225D01*
X118386411Y-70265000D01*
X118113589Y-70265000D01*
X117846011Y-70318225D01*
X117593957Y-70422629D01*
X117367114Y-70574201D01*
X117174201Y-70767114D01*
X117022629Y-70993957D01*
X116918225Y-71246011D01*
X116865000Y-71513589D01*
X100660000Y-71513589D01*
X100660000Y-60213589D01*
X116865000Y-60213589D01*
X116865000Y-60486411D01*
X116918225Y-60753989D01*
X117022629Y-61006043D01*
X117174201Y-61232886D01*
X117367114Y-61425799D01*
X117593957Y-61577371D01*
X117846011Y-61681775D01*
X118113589Y-61735000D01*
X118386411Y-61735000D01*
X118653989Y-61681775D01*
X118906043Y-61577371D01*
X119132886Y-61425799D01*
X119325799Y-61232886D01*
X119477371Y-61006043D01*
X119581775Y-60753989D01*
X119635000Y-60486411D01*
X119635000Y-60213589D01*
X119581775Y-59946011D01*
X119477371Y-59693957D01*
X119325799Y-59467114D01*
X119132886Y-59274201D01*
X118906043Y-59122629D01*
X118653989Y-59018225D01*
X118386411Y-58965000D01*
X118113589Y-58965000D01*
X117846011Y-59018225D01*
X117593957Y-59122629D01*
X117367114Y-59274201D01*
X117174201Y-59467114D01*
X117022629Y-59693957D01*
X116918225Y-59946011D01*
X116865000Y-60213589D01*
X100660000Y-60213589D01*
X100660000Y-53291599D01*
X116701082Y-53291599D01*
X116729352Y-53495433D01*
X116796845Y-53689836D01*
X116900967Y-53867336D01*
X117037717Y-54021112D01*
X117201840Y-54145255D01*
X117387028Y-54234994D01*
X117463877Y-54244666D01*
X117623000Y-54116998D01*
X117623000Y-53127000D01*
X116866238Y-53127000D01*
X116701082Y-53291599D01*
X100660000Y-53291599D01*
X100660000Y-52708401D01*
X116701082Y-52708401D01*
X116866238Y-52873000D01*
X117623000Y-52873000D01*
X117623000Y-51883002D01*
X117877000Y-51883002D01*
X117877000Y-52873000D01*
X117897000Y-52873000D01*
X117897000Y-53127000D01*
X117877000Y-53127000D01*
X117877000Y-54116998D01*
X118036123Y-54244666D01*
X118112972Y-54234994D01*
X118298160Y-54145255D01*
X118316015Y-54131749D01*
X118334392Y-54146831D01*
X118479284Y-54224278D01*
X118636500Y-54271969D01*
X118800000Y-54288072D01*
X119200000Y-54288072D01*
X119363500Y-54271969D01*
X119520716Y-54224278D01*
X119665608Y-54146831D01*
X119792606Y-54042606D01*
X119896831Y-53915608D01*
X119974278Y-53770716D01*
X120021969Y-53613500D01*
X120038072Y-53450000D01*
X120038072Y-52550000D01*
X120021969Y-52386500D01*
X119974278Y-52229284D01*
X119896831Y-52084392D01*
X119792606Y-51957394D01*
X119665608Y-51853169D01*
X119520716Y-51775722D01*
X119363500Y-51728031D01*
X119200000Y-51711928D01*
X118800000Y-51711928D01*
X118636500Y-51728031D01*
X118479284Y-51775722D01*
X118334392Y-51853169D01*
X118316015Y-51868251D01*
X118298160Y-51854745D01*
X118112972Y-51765006D01*
X118036123Y-51755334D01*
X117877000Y-51883002D01*
X117623000Y-51883002D01*
X117463877Y-51755334D01*
X117387028Y-51765006D01*
X117201840Y-51854745D01*
X117037717Y-51978888D01*
X116900967Y-52132664D01*
X116796845Y-52310164D01*
X116729352Y-52504567D01*
X116701082Y-52708401D01*
X100660000Y-52708401D01*
X100660000Y-50660000D01*
X134340000Y-50660000D01*
X134340001Y-106340000D01*
%TA.AperFunction,Conductor*%
D12*
G36*
X134340001Y-106340000D02*
G01*
X100660000Y-106340000D01*
X100660000Y-71513589D01*
X116865000Y-71513589D01*
X116865000Y-71786411D01*
X116918225Y-72053989D01*
X117022629Y-72306043D01*
X117174201Y-72532886D01*
X117367114Y-72725799D01*
X117593957Y-72877371D01*
X117846011Y-72981775D01*
X118113589Y-73035000D01*
X118386411Y-73035000D01*
X118653989Y-72981775D01*
X118906043Y-72877371D01*
X119132886Y-72725799D01*
X119325799Y-72532886D01*
X119477371Y-72306043D01*
X119581775Y-72053989D01*
X119635000Y-71786411D01*
X119635000Y-71513589D01*
X119581775Y-71246011D01*
X119477371Y-70993957D01*
X119325799Y-70767114D01*
X119132886Y-70574201D01*
X118906043Y-70422629D01*
X118653989Y-70318225D01*
X118386411Y-70265000D01*
X118113589Y-70265000D01*
X117846011Y-70318225D01*
X117593957Y-70422629D01*
X117367114Y-70574201D01*
X117174201Y-70767114D01*
X117022629Y-70993957D01*
X116918225Y-71246011D01*
X116865000Y-71513589D01*
X100660000Y-71513589D01*
X100660000Y-60213589D01*
X116865000Y-60213589D01*
X116865000Y-60486411D01*
X116918225Y-60753989D01*
X117022629Y-61006043D01*
X117174201Y-61232886D01*
X117367114Y-61425799D01*
X117593957Y-61577371D01*
X117846011Y-61681775D01*
X118113589Y-61735000D01*
X118386411Y-61735000D01*
X118653989Y-61681775D01*
X118906043Y-61577371D01*
X119132886Y-61425799D01*
X119325799Y-61232886D01*
X119477371Y-61006043D01*
X119581775Y-60753989D01*
X119635000Y-60486411D01*
X119635000Y-60213589D01*
X119581775Y-59946011D01*
X119477371Y-59693957D01*
X119325799Y-59467114D01*
X119132886Y-59274201D01*
X118906043Y-59122629D01*
X118653989Y-59018225D01*
X118386411Y-58965000D01*
X118113589Y-58965000D01*
X117846011Y-59018225D01*
X117593957Y-59122629D01*
X117367114Y-59274201D01*
X117174201Y-59467114D01*
X117022629Y-59693957D01*
X116918225Y-59946011D01*
X116865000Y-60213589D01*
X100660000Y-60213589D01*
X100660000Y-53291599D01*
X116701082Y-53291599D01*
X116729352Y-53495433D01*
X116796845Y-53689836D01*
X116900967Y-53867336D01*
X117037717Y-54021112D01*
X117201840Y-54145255D01*
X117387028Y-54234994D01*
X117463877Y-54244666D01*
X117623000Y-54116998D01*
X117623000Y-53127000D01*
X116866238Y-53127000D01*
X116701082Y-53291599D01*
X100660000Y-53291599D01*
X100660000Y-52708401D01*
X116701082Y-52708401D01*
X116866238Y-52873000D01*
X117623000Y-52873000D01*
X117623000Y-51883002D01*
X117877000Y-51883002D01*
X117877000Y-52873000D01*
X117897000Y-52873000D01*
X117897000Y-53127000D01*
X117877000Y-53127000D01*
X117877000Y-54116998D01*
X118036123Y-54244666D01*
X118112972Y-54234994D01*
X118298160Y-54145255D01*
X118316015Y-54131749D01*
X118334392Y-54146831D01*
X118479284Y-54224278D01*
X118636500Y-54271969D01*
X118800000Y-54288072D01*
X119200000Y-54288072D01*
X119363500Y-54271969D01*
X119520716Y-54224278D01*
X119665608Y-54146831D01*
X119792606Y-54042606D01*
X119896831Y-53915608D01*
X119974278Y-53770716D01*
X120021969Y-53613500D01*
X120038072Y-53450000D01*
X120038072Y-52550000D01*
X120021969Y-52386500D01*
X119974278Y-52229284D01*
X119896831Y-52084392D01*
X119792606Y-51957394D01*
X119665608Y-51853169D01*
X119520716Y-51775722D01*
X119363500Y-51728031D01*
X119200000Y-51711928D01*
X118800000Y-51711928D01*
X118636500Y-51728031D01*
X118479284Y-51775722D01*
X118334392Y-51853169D01*
X118316015Y-51868251D01*
X118298160Y-51854745D01*
X118112972Y-51765006D01*
X118036123Y-51755334D01*
X117877000Y-51883002D01*
X117623000Y-51883002D01*
X117463877Y-51755334D01*
X117387028Y-51765006D01*
X117201840Y-51854745D01*
X117037717Y-51978888D01*
X116900967Y-52132664D01*
X116796845Y-52310164D01*
X116729352Y-52504567D01*
X116701082Y-52708401D01*
X100660000Y-52708401D01*
X100660000Y-50660000D01*
X134340000Y-50660000D01*
X134340001Y-106340000D01*
G37*
%TD.AperFunction*%
%TD*%
M02*
